Coordinates
version=1
nRows=16
nColumns=40
inDegrees=yes

Units are S.I. units (second, meters, Newtons, ...)
Angles are in degrees.

endheader
time	pelvis_tilt	pelvis_list	pelvis_rotation	pelvis_tx	pelvis_ty	pelvis_tz	hip_flexion_r	hip_adduction_r	hip_rotation_r	knee_angle_r	knee_angle_r_beta	ankle_angle_r	subtalar_angle_r	mtp_angle_r	hip_flexion_l	hip_adduction_l	hip_rotation_l	knee_angle_l	knee_angle_l_beta	ankle_angle_l	subtalar_angle_l	mtp_angle_l	lumbar_extension	lumbar_bending	lumbar_rotation	arm_flex_r	arm_add_r	arm_rot_r	elbow_flex_r	pro_sup_r	wrist_flex_r	wrist_dev_r	arm_flex_l	arm_add_l	arm_rot_l	elbow_flex_l	pro_sup_l	wrist_flex_l	wrist_dev_l
     51.87442857	     -3.56852807	     -3.30482451	     -2.26163159	      1.08223880	      0.93494888	      0.44191355	     35.99754164	     -6.31614252	     -5.82607896	     63.45854560	     63.45854560	     -2.69289382	    -18.23640885	      7.74891840	      7.53695370	     -2.64766735	     -7.40437980	     17.17047203	     17.17047203	     15.23146910	     -9.12339694	      0.49665097	     -9.97232849	      7.74516648	      3.02650231	      0.34199184	    -11.39272127	    -10.84424196	     25.92557041	     47.05070788	      0.00000000	      0.00000000	     23.28073629	    -15.87710500	     -2.31443222	     66.62617344	     46.91798506	      0.00000000	      0.00000000
     51.88635714	     -3.65836011	     -3.32970427	     -2.28101196	      1.08136066	      0.93466073	      0.44214763	     36.46233433	     -6.05960384	     -6.15735960	     60.59983207	     60.59983207	     -2.59671631	    -17.99214993	      6.63211203	      6.72670534	     -2.72041640	     -7.91498822	     16.64349622	     16.64349622	     15.54089643	     -8.19367986	     -0.07221912	    -10.03647525	      7.76197389	      2.39082164	     -0.30193868	    -11.20626141	    -11.05957797	     22.19885095	     47.22420941	      0.00000000	      0.00000000	     23.82392117	    -16.81847044	     -2.99118529	     70.22382430	     47.06010379	      0.00000000	      0.00000000
     51.89828571	     -3.83581282	     -3.37455123	     -2.24725934	      1.08050162	      0.93420965	      0.44233784	     36.85682499	     -5.81302814	     -6.57067999	     57.43770201	     57.43770201	     -2.18481985	    -17.47940221	      6.66008684	      5.98334871	     -2.73341070	     -7.99051550	     16.03295118	     16.03295118	     15.80003207	     -7.81522685	     -0.11471742	     -9.92631481	      7.88091076	      2.27151621	     -2.22714716	    -11.23739532	    -11.12942658	     21.25411834	     47.25441109	      0.00000000	      0.00000000	     25.24550524	    -17.10372331	     -3.39523191	     71.55200158	     47.12269919	      0.00000000	      0.00000000
     51.91021429	     -3.85848161	     -3.31632072	     -2.30440887	      1.07985657	      0.93378896	      0.44271729	     36.91693964	     -5.58442986	     -6.79419901	     53.96704220	     53.96704220	     -1.89148137	    -16.78733483	      6.05113980	      4.99183399	     -2.67136339	     -8.41594901	     15.33787173	     15.33787173	     16.13334364	     -7.00632024	     -0.32966968	    -10.10155856	      7.78155584	      2.59653733	     -4.28801383	    -11.27713854	    -11.33668296	     20.24642776	     47.30312825	      0.00000000	      0.00000000	     26.53948379	    -17.09585527	     -3.75197199	     74.04965972	     47.20675770	      0.00000000	      0.00000000
     51.92214286	     -4.02401407	     -3.26909809	     -2.28934211	      1.07930702	      0.93298940	      0.44311221	     36.86366224	     -5.41128430	     -7.20764915	     50.08428825	     50.08428825	     -2.00429123	    -16.03850282	      4.20120622	      4.26198082	     -2.67743008	     -8.94763811	     14.83944373	     14.83944373	     16.49672062	     -5.93368992	     -0.72237482	    -10.06032470	      7.73067260	      2.33865438	     -6.17217268	    -11.26484773	    -11.97144071	     19.95251580	     47.36853091	      0.00000000	      0.00000000	     27.16569220	    -17.60071163	     -4.14806183	     77.00209188	     47.31197621	      0.00000000	      0.00000000
     51.93407143	     -4.10392700	     -3.22878023	     -2.27222314	      1.07887924	      0.93220968	      0.44355396	     36.53664993	     -5.20417934	     -7.62860369	     45.97440743	     45.97440743	     -1.70224690	    -14.85540474	      3.41344938	      3.41551512	     -2.63825768	     -9.21744043	     14.31195816	     14.31195816	     16.84135157	     -5.29546238	     -0.90109013	    -10.09239252	      7.71256628	      2.27534086	     -8.09223494	    -11.30563946	    -12.35091475	     19.65930008	     47.40232957	      0.00000000	      0.00000000	     28.20314931	    -17.86333565	     -4.48810163	     78.82573835	     47.38553702	      0.00000000	      0.00000000
     51.94600000	     -4.28557912	     -3.19123071	     -2.22801069	      1.07862371	      0.93110323	      0.44413682	     36.01193709	     -4.96470350	     -8.14747375	     41.41809758	     41.41809758	     -2.15786812	    -13.86020445	      0.57799964	      2.75914904	     -2.67589497	     -9.68895895	     13.96542364	     13.96542364	     17.27091580	     -4.26876223	     -1.20720625	    -10.00688910	      7.70598456	      2.00559781	    -10.27098594	    -11.29076578	    -13.68340933	     20.77198917	     47.45626383	      0.00000000	      0.00000000	     28.68436685	    -18.38444056	     -4.84385864	     81.30861902	     47.50831295	      0.00000000	      0.00000000
     51.95792857	     -4.40340400	     -3.10966974	     -2.16866043	      1.07853653	      0.92994932	      0.44476179	     35.34557145	     -4.75884464	     -8.70773846	     36.96091876	     36.96091876	     -1.64896884	    -12.17442855	      0.71753414	      1.97932546	     -2.60077832	     -9.85176184	     13.51372611	     13.51372611	     17.60047191	     -3.77698484	     -1.38205674	     -9.92272546	      7.64678306	      1.99172839	    -12.01898116	    -11.34518190	    -13.90556733	     20.45214027	     47.47113967	      0.00000000	      0.00000000	     29.63072316	    -18.52022346	     -4.98274541	     82.57525853	     47.55335108	      0.00000000	      0.00000000
     51.96985714	     -4.42702332	     -2.96038229	     -2.13700957	      1.07880919	      0.92866773	      0.44554097	     34.44419687	     -4.61828514	     -9.36790339	     32.54483212	     32.54483212	     -1.13894889	    -10.06475266	      0.76670370	      1.05696893	     -2.49133079	    -10.28508835	     13.05081230	     13.05081230	     17.98989155	     -2.85104080	     -1.69683528	     -9.91592808	      7.46407494	      2.04839895	    -13.96302379	    -11.33012065	    -14.37073286	     20.88404090	     47.46725979	      0.00000000	      0.00000000	     30.34329344	    -18.67570218	     -5.00690404	     84.50892401	     47.60948678	      0.00000000	      0.00000000
     51.98178571	     -4.70129630	     -2.82274281	     -2.09804617	      1.07903662	      0.92689862	      0.44660730	     33.69688179	     -4.30148649	     -9.81768221	     28.17433956	     28.17433956	     -0.81979729	     -8.52413136	      1.41508659	      0.52137715	     -2.40338330	    -10.40122566	     12.77680806	     12.77680806	     18.31267475	     -2.49105283	     -1.90187116	     -9.56347572	      7.30363967	      1.91096626	    -15.36542241	    -11.28831170	    -14.54787641	     20.84390487	     47.46721008	      0.00000000	      0.00000000	     30.98072618	    -18.98529147	     -5.11510083	     85.45115417	     47.64220284	      0.00000000	      0.00000000
     51.99371429	     -4.51912540	     -2.68368908	     -2.02763149	      1.07997486	      0.92547749	      0.44761597	     32.45441169	     -4.19500553	    -10.87110129	     24.36148203	     24.36148203	     -0.07067022	     -5.87499746	      2.49901117	     -0.63373789	     -2.35797592	    -11.02510370	     12.39631034	     12.39631034	     18.79810476	     -1.16884206	     -2.28234619	     -9.77244757	      7.16277771	      2.00123699	    -17.46196146	    -11.29720845	    -15.20957676	     22.28996820	     47.42186748	      0.00000000	      0.00000000	     31.21438939	    -19.15990533	     -4.96264032	     87.74898409	     47.70222231	      0.00000000	      0.00000000
     52.00564286	     -4.60971878	     -2.56758658	     -1.96431968	      1.08082070	      0.92356192	      0.44901083	     31.51529024	     -3.86251216	    -11.42715807	     20.89251116	     20.89251116	      0.15448293	     -4.50220972	      3.50022102	     -1.36888091	     -2.32012902	    -11.10181162	     12.22045275	     12.22045275	     19.22382917	     -0.84840106	     -2.47541827	     -9.56095460	      7.00747959	      1.96061663	    -18.69726552	    -11.27292788	    -15.35959706	     22.39402869	     47.41119722	      0.00000000	      0.00000000	     31.59597901	    -19.30982491	     -4.97728225	     88.56309209	     47.72634288	      0.00000000	      0.00000000
     52.01757143	     -4.49036814	     -2.44820948	     -1.91441378	      1.08206083	      0.92181798	      0.45049781	     30.50057009	     -3.65238369	    -12.28983657	     18.26400787	     18.26400787	      0.57932399	     -2.80668371	      4.75073781	     -2.40373293	     -2.29589006	    -11.39351484	     11.98068304	     11.98068304	     19.72110129	     -0.14121873	     -2.62211105	     -9.55416995	      6.88695000	      2.11623568	    -20.00215105	    -11.24304955	    -15.55604529	     22.81744244	     47.38483135	      0.00000000	      0.00000000	     31.79034406	    -19.39271750	     -4.85414733	     89.80019113	     47.75583493	      0.00000000	      0.00000000
     52.02950000	     -4.54216906	     -2.34700758	     -1.88602995	      1.08329378	      0.91979601	      0.45230439	     29.94097283	     -3.48269333	    -13.12375381	     16.65928343	     16.65928343	      1.42908655	     -1.32045452	      7.00923224	     -3.09850707	     -2.39610792	    -11.95778654	     12.08084313	     12.08084313	     20.52637940	      0.98243499	     -2.35432289	     -9.41935352	      6.72579506	      2.13093921	    -21.33229621	    -11.16664565	    -15.78136262	     24.24172958	     47.28804833	      0.00000000	      0.00000000	     31.65728575	    -19.63138764	     -4.64048850	     91.19737867	     47.81632116	      0.00000000	      0.00000000
     52.04142857	     -4.56765499	     -2.31258521	     -1.82711793	      1.08465164	      0.91790287	      0.45424164	     29.35015501	     -3.21641713	    -13.64476931	     15.46338870	     15.46338870	      1.40458394	     -0.90328647	      7.26933261	     -3.83513373	     -2.50307213	    -11.92852583	     12.11644409	     12.11644409	     20.99885574	      1.12861877	     -2.38154413	     -9.21586131	      6.66383223	      2.26642071	    -21.92595881	    -11.13507719	    -15.73981354	     24.02973877	     47.28170631	      0.00000000	      0.00000000	     31.65527251	    -19.51336241	     -4.58757433	     91.64020952	     47.82999158	      0.00000000	      0.00000000
     52.05335714	     -4.55632536	     -2.32413720	     -1.77185710	      1.08615214	      0.91612911	      0.45640635	     28.88690608	     -3.01304425	    -14.28094290	     15.03734815	     15.03734815	      1.08940092	     -0.59356407	      6.13166902	     -4.46914035	     -2.78132579	    -12.34555461	     12.50998445	     12.50998445	     21.86912916	      1.98239340	     -1.84446632	     -9.07610578	      6.62428081	      2.30725220	    -22.20465460	    -11.15824751	    -15.45283762	     23.73027082	     47.24160690	      0.00000000	      0.00000000	     31.25790632	    -19.57953800	     -4.42664933	     92.54682897	     47.87434374	      0.00000000	      0.00000000
